<?xml version="1.0" encoding="utf-8"?>
<!-- Generator: Adobe Illustrator 23.0.0, SVG Export Plug-In . SVG Version: 6.00 Build 0)  -->
<svg version="1.1" id="图层_1" xmlns="http://www.w3.org/2000/svg" xmlns:xlink="http://www.w3.org/1999/xlink" x="0px" y="0px"
	 viewBox="0 0 750 324" style="enable-background:new 0 0 750 324;" xml:space="preserve">
<style type="text/css">
	.st0{fill:url(#SVGID_1_);}
	.st1{fill:url(#SVGID_2_);}
	.st2{fill:url(#SVGID_3_);}
	.st3{fill:url(#SVGID_4_);}
	.st4{fill:url(#SVGID_5_);}
	.st5{fill:url(#SVGID_6_);}
	.st6{fill:url(#SVGID_7_);}
	.st7{fill:url(#SVGID_8_);}
	.st8{fill:url(#SVGID_9_);}
	.st9{fill:#FCD981;}
	.st10{fill:url(#SVGID_10_);}
	.st11{fill:url(#SVGID_11_);}
</style>
<g>
	
		<linearGradient id="SVGID_1_" gradientUnits="userSpaceOnUse" x1="-163.9942" y1="808.4449" x2="-166.5391" y2="782.2961" gradientTransform="matrix(0.9104 -0.4138 0.4138 0.9104 97.9058 -589.9543)">
		<stop  offset="0" style="stop-color:#FFE8D5"/>
		<stop  offset="0.9988" style="stop-color:#E2CEAB"/>
	</linearGradient>
	<path class="st0" d="M284.3,198.9c2.9,6.7,1.8,13.7-2.5,15.7c-4.3,2-10.2-1.7-13.1-8.4c-2.9-6.7-1.8-13.7,2.5-15.7
		C275.5,188.4,281.4,192.2,284.3,198.9z"/>
	<linearGradient id="SVGID_2_" gradientUnits="userSpaceOnUse" x1="98.2115" y1="258.9543" x2="388.6986" y2="258.9543">
		<stop  offset="0" style="stop-color:#96CDFF"/>
		<stop  offset="0.9988" style="stop-color:#7E88B2"/>
	</linearGradient>
	<path class="st1" d="M104.5,305.1c0,0-28.4-32.3,36-72.5c32.5-20.3,138-29.5,198.6-5.3c47.3,18.9,49.7,76.1,49.7,76.1l-113,1.8
		H130.1H104.5z"/>
	
		<radialGradient id="SVGID_3_" cx="375" cy="334.2126" r="265.7863" gradientTransform="matrix(1 0 0 0.4022 0 179.2493)" gradientUnits="userSpaceOnUse">
		<stop  offset="0" style="stop-color:#FFF5E6"/>
		<stop  offset="1" style="stop-color:#ECD3B8"/>
	</radialGradient>
	<path class="st2" d="M740,324H10c-5.5,0-10-4.5-10-10v-0.7c0-5.5,4.5-10,10-10h730c5.5,0,10,4.5,10,10v0.7
		C750,319.5,745.5,324,740,324z"/>
	
		<linearGradient id="SVGID_4_" gradientUnits="userSpaceOnUse" x1="-462.5098" y1="973.2866" x2="-465.0444" y2="947.2437" gradientTransform="matrix(0.8438 -0.5366 0.5366 0.8438 64.4341 -800.0497)">
		<stop  offset="0" style="stop-color:#FFE8D5"/>
		<stop  offset="0.9988" style="stop-color:#E2CEAB"/>
	</linearGradient>
	<path class="st3" d="M195.6,254.4c3.8,6.2,3.7,13.3-0.3,15.9c-4,2.6-10.3-0.3-14.1-6.4c-3.8-6.2-3.7-13.3,0.3-15.9
		C185.5,245.3,191.8,248.2,195.6,254.4z"/>
	
		<linearGradient id="SVGID_5_" gradientUnits="userSpaceOnUse" x1="-138.7449" y1="-1124.2025" x2="-35.848" y2="-1124.2025" gradientTransform="matrix(0.8405 0.9468 -0.8571 0.7609 -660.4997 1162.5815)">
		<stop  offset="0" style="stop-color:#F4EADD"/>
		<stop  offset="0.9988" style="stop-color:#E8D1BD"/>
	</linearGradient>
	<path class="st4" d="M272.2,273.9c-20.5,18.8-56.1,11.9-79.5-15.4s-25.9-64.6-5.4-83.4s56.1-11.9,79.5,15.4
		S292.6,255.1,272.2,273.9z"/>
	<linearGradient id="SVGID_6_" gradientUnits="userSpaceOnUse" x1="214.0411" y1="278.498" x2="388.9139" y2="278.498">
		<stop  offset="0" style="stop-color:#96CDFF"/>
		<stop  offset="0.9988" style="stop-color:#7E88B2"/>
	</linearGradient>
	<path class="st5" d="M388.9,304.2c0,0-6.2-28.3-61-47.8c-47.8-17-113.9,30.1-113.9,30.1l3.6,17.7h145.5H388.9z"/>
	
		<linearGradient id="SVGID_7_" gradientUnits="userSpaceOnUse" x1="-2821.415" y1="289.6313" x2="-2769.8071" y2="289.6313" gradientTransform="matrix(-1 0 0 1 -2566.2781 0)">
		<stop  offset="0" style="stop-color:#F4EADD"/>
		<stop  offset="0.9988" style="stop-color:#E8D1BD"/>
	</linearGradient>
	<path class="st6" d="M217.2,275.9c0,0,25.7,2.6,30,8c12,15,6.8,19.5,6.8,19.5h-50.5L217.2,275.9z"/>
	<linearGradient id="SVGID_8_" gradientUnits="userSpaceOnUse" x1="171.0619" y1="209.1069" x2="270.8346" y2="209.1069">
		<stop  offset="0" style="stop-color:#1C002C"/>
		<stop  offset="0.9988" style="stop-color:#3D2A59"/>
	</linearGradient>
	<path class="st7" d="M185.8,256.5c0,0,18.8-18.6,10.3-38.9c0,0,60.5,3.9,74.8-21.9c0,0-33.5-59.8-83.3-20.5
		C151.5,203.4,185.8,256.5,185.8,256.5z"/>
	<linearGradient id="SVGID_9_" gradientUnits="userSpaceOnUse" x1="97.5864" y1="274.4232" x2="224.3151" y2="274.4232">
		<stop  offset="0" style="stop-color:#96CDFF"/>
		<stop  offset="0.9988" style="stop-color:#7E88B2"/>
	</linearGradient>
	<path class="st8" d="M224.3,276.8l-3.4,28.3H104.5c0,0-20.9-22.4,10.1-52.3S224.3,276.8,224.3,276.8z"/>
	<g>
		<path class="st9" d="M138.1,165.1l11.5-12.6l2.1,2.1l-17.3,18.9l-0.6-0.6l1.1-23.3l-11.6,12.7l-2.1-2.1l16.9-18.6l0.7,0.7
			L138.1,165.1z"/>
	</g>
	<g>
		<path class="st9" d="M145.5,86l22.3-8l1.4,4l-33.5,12l-0.4-1.2l16.1-28.4l-22.5,8.1l-1.4-4l32.9-11.8l0.4,1.3L145.5,86z"/>
	</g>
	<g>
		<path class="st9" d="M56.2,63.2l29.4-10.5l1.8,5.3L43.3,73.8l-0.5-1.6l21.2-37.4L34.3,45.5l-1.8-5.3l43.3-15.5l0.6,1.7L56.2,63.2z
			"/>
	</g>
	<linearGradient id="SVGID_10_" gradientUnits="userSpaceOnUse" x1="351.4104" y1="254.5348" x2="605.7814" y2="0.1639">
		<stop  offset="0" style="stop-color:#54586D"/>
		<stop  offset="0.9988" style="stop-color:#CFD3EC"/>
	</linearGradient>
	<path class="st10" d="M590.1,254.7h-223c-20.7,0-37.5-16.8-37.5-37.5V37.5c0-20.7,16.8-37.5,37.5-37.5h223
		c20.7,0,37.5,16.8,37.5,37.5v179.8C627.6,237.9,610.8,254.7,590.1,254.7z"/>
	<linearGradient id="SVGID_11_" gradientUnits="userSpaceOnUse" x1="478.5959" y1="303.3391" x2="478.5959" y2="130.8868">
		<stop  offset="0" style="stop-color:#54586D"/>
		<stop  offset="0.9988" style="stop-color:#CFD3EC"/>
	</linearGradient>
	<polygon class="st11" points="541.5,303.3 415.7,303.3 449.9,130.9 507.3,130.9 	"/>
</g>
</svg>
