<?xml version="1.0" encoding="utf-8"?>
<!-- Generator: Adobe Illustrator 22.0.0, SVG Export Plug-In . SVG Version: 6.00 Build 0)  -->
<svg version="1.1" id="图层_1" xmlns="http://www.w3.org/2000/svg" xmlns:xlink="http://www.w3.org/1999/xlink" x="0px" y="0px"
	 viewBox="0 0 24 16" style="enable-background:new 0 0 24 16;" xml:space="preserve">
<style type="text/css">
	.st0{fill:#A5D6A7;}
</style>
<g>
	<path class="st0" d="M16,0H8C3.6,0,0,3.6,0,8c0,4.4,3.6,8,8,8h8c4.4,0,8-3.6,8-8C24,3.6,20.4,0,16,0z M12.1,5.1H7.7v2.1h3.5v1.7
		H7.7v3.7H5.4V3.3h6.6V5.1z M19.1,11.3c-0.6,0.9-1.5,1.4-2.7,1.4c-1.1,0-2-0.5-2.7-1.4c-0.6-0.9-1-2.1-1-3.4c0-1.4,0.3-2.5,0.9-3.4
		s1.5-1.4,2.7-1.4c1.2,0,2.1,0.5,2.7,1.4S20,6.6,20,7.9C20,9.3,19.7,10.4,19.1,11.3z"/>
	<path class="st0" d="M16.4,4.7c-0.5,0-0.9,0.2-1.1,0.7S15,6.7,15,7.9c0,1.2,0.1,2,0.3,2.5c0.2,0.5,0.6,0.7,1.1,0.7
		c0.5,0,0.8-0.2,1.1-0.7c0.2-0.5,0.3-1.3,0.3-2.4c0-1.3-0.1-2.1-0.3-2.6S16.9,4.7,16.4,4.7z"/>
</g>
</svg>
