<?xml version="1.0" encoding="utf-8"?>
<!-- Generator: Adobe Illustrator 22.0.0, SVG Export Plug-In . SVG Version: 6.00 Build 0)  -->
<svg version="1.1" id="图层_1" xmlns="http://www.w3.org/2000/svg" xmlns:xlink="http://www.w3.org/1999/xlink" x="0px" y="0px"
	 viewBox="0 0 24 16" style="enable-background:new 0 0 24 16;" xml:space="preserve">
<style type="text/css">
	.st0{fill:#81C784;}
</style>
<path class="st0" d="M16,0H8C3.6,0,0,3.6,0,8c0,4.4,3.6,8,8,8h8c4.4,0,8-3.6,8-8C24,3.6,20.4,0,16,0z M12.1,5.1H7.7v2.1h3.5v1.7H7.7
	v3.7H5.4V3.3h6.6V5.1z M20.4,12.6h-7.6v-1.7h2.8V5.5c-1.1,0.7-2,1.1-2.6,1.4V5c1.6-0.5,2.7-1.1,3.2-1.9h1.6v7.8h2.6V12.6z"/>
</svg>
