<?xml version="1.0" encoding="utf-8"?>
<!-- Generator: Adobe Illustrator 22.0.0, SVG Export Plug-In . SVG Version: 6.00 Build 0)  -->
<svg version="1.1" id="图层_1" xmlns="http://www.w3.org/2000/svg" xmlns:xlink="http://www.w3.org/1999/xlink" x="0px" y="0px"
	 viewBox="0 0 24 16" style="enable-background:new 0 0 24 16;" xml:space="preserve">
<style type="text/css">
	.st0{fill:#43A047;}
</style>
<path class="st0" d="M16,0H8C3.6,0,0,3.6,0,8c0,4.4,3.6,8,8,8h8c4.4,0,8-3.6,8-8C24,3.6,20.4,0,16,0z M12.1,5.1H7.7v2.1h3.5v1.7H7.7
	v3.7H5.4V3.3h6.6V5.1z M18.9,11.9c-0.6,0.5-1.5,0.8-2.6,0.8c-1.1,0-1.9-0.3-2.6-0.8s-1-1.2-1.1-2l2-0.3c0.2,1,0.7,1.4,1.7,1.4
	c0.4,0,0.8-0.1,1-0.3c0.3-0.2,0.4-0.5,0.4-0.9c0-0.4-0.1-0.7-0.4-0.9c-0.2-0.2-0.7-0.3-1.4-0.3H15V6.9h1c0.6,0,0.9-0.1,1.1-0.3
	s0.3-0.5,0.3-0.7c0-0.3-0.1-0.6-0.3-0.8c-0.2-0.2-0.5-0.3-0.9-0.3c-0.8,0-1.2,0.4-1.4,1.2l-1.9-0.3c0.2-0.7,0.5-1.3,1.2-1.8
	s1.4-0.7,2.3-0.7c0.9,0,1.7,0.2,2.4,0.7c0.6,0.4,1,1.1,1,1.8c0,1-0.5,1.7-1.6,2.1c1.3,0.3,1.9,1.1,1.9,2.2
	C19.8,10.7,19.5,11.4,18.9,11.9z"/>
</svg>
